<svg width="88" height="88" viewBox="0 0 88 88" fill="none" xmlns="http://www.w3.org/2000/svg">
<rect x="0.436646" y="31.896" width="64" height="64" rx="12" transform="rotate(-29.8925 0.436646 31.896)" fill="#FEFFFE"/>
<path d="M23.7074 50.1908L25.8674 37.3658C26.0834 36.0878 26.4074 35.0168 26.8394 34.1528C27.2894 33.2888 27.8654 32.5868 28.5674 32.0468C29.2874 31.5068 30.1424 31.1198 31.1324 30.8858C32.1404 30.6518 33.3104 30.5348 34.6424 30.5348C35.3624 30.5348 36.1094 30.5798 36.8834 30.6698C37.6754 30.7418 38.4314 30.8588 39.1514 31.0208L39.2054 31.3448C39.1334 31.6868 39.0794 32.1278 39.0434 32.6678C39.0254 33.2078 39.0164 33.7568 39.0164 34.3148C39.0164 34.8548 39.0164 35.3048 39.0164 35.6648L39.0164 50.1908L35.1554 50.1908L35.1554 35.3408C35.1554 34.8728 35.1644 34.4498 35.1824 34.0718C35.2184 33.6758 35.2724 33.3158 35.3444 32.9918L35.8844 33.9908C35.6684 33.9188 35.3894 33.8738 35.0474 33.8558C34.7234 33.8198 34.3994 33.8018 34.0754 33.8018C33.0854 33.8018 32.2934 33.9368 31.6994 34.2068C31.1234 34.4588 30.6824 34.8548 30.3764 35.3948C30.0704 35.9348 29.8454 36.6188 29.7014 37.4468L27.5954 50.1908L23.7074 50.1908ZM26.8394 44.8178L26.8394 41.6318L36.8834 41.6318L36.8834 44.8178L26.8394 44.8178ZM45.1287 50.4608C44.4807 50.4608 43.9407 50.2628 43.5087 49.8668C43.0947 49.4528 42.8877 48.9038 42.8877 48.2198C42.8877 47.5358 43.0947 46.9958 43.5087 46.5998C43.9407 46.2038 44.4807 46.0058 45.1287 46.0058C45.7767 46.0058 46.3077 46.2038 46.7217 46.5998C47.1357 46.9958 47.3427 47.5358 47.3427 48.2198C47.3427 48.9038 47.1357 49.4528 46.7217 49.8668C46.3077 50.2628 45.7767 50.4608 45.1287 50.4608ZM50.5349 45.9788L50.8049 45.9788C51.2369 46.2128 51.7499 46.4288 52.3439 46.6268C52.9379 46.8248 53.5859 46.9868 54.2879 47.1128C55.0079 47.2208 55.7459 47.2748 56.5019 47.2748C57.3299 47.2748 58.0409 47.2118 58.6349 47.0858C59.2289 46.9418 59.6879 46.7168 60.0119 46.4108C60.3359 46.0868 60.4979 45.6548 60.4979 45.1148C60.4979 44.4488 60.2909 43.9628 59.8769 43.6568C59.4629 43.3508 58.7879 43.1168 57.8519 42.9548L55.7999 42.6038C54.6479 42.4238 53.6489 42.1088 52.8029 41.6588C51.9569 41.1908 51.2999 40.5698 50.8319 39.7958C50.3819 39.0038 50.1569 38.0408 50.1569 36.9068C50.1569 35.5028 50.4809 34.3238 51.1289 33.3698C51.7949 32.3978 52.7759 31.6688 54.0719 31.1828C55.3679 30.6788 56.9609 30.4268 58.8509 30.4268C59.7149 30.4268 60.5519 30.5078 61.3619 30.6698C62.1899 30.8138 62.8649 31.0028 63.3869 31.2368L63.3869 34.6118L63.1439 34.6118C62.6399 34.3778 62.0009 34.1618 61.2269 33.9638C60.4709 33.7658 59.5979 33.6668 58.6079 33.6668C57.6719 33.6668 56.8439 33.7748 56.1239 33.9908C55.4219 34.1888 54.8729 34.5128 54.4769 34.9628C54.0989 35.4128 53.9099 35.9978 53.9099 36.7178C53.9099 37.6178 54.1709 38.2478 54.6929 38.6078C55.2149 38.9678 55.9979 39.2468 57.0419 39.4448L59.0399 39.7688C60.0299 39.9308 60.9209 40.2188 61.7129 40.6328C62.5049 41.0288 63.1259 41.5868 63.5759 42.3068C64.0439 43.0088 64.2779 43.9088 64.2779 45.0068C64.2779 45.9788 64.0799 46.8158 63.6839 47.5178C63.3059 48.2198 62.7659 48.7958 62.0639 49.2458C61.3619 49.6778 60.5339 49.9928 59.5799 50.1908C58.6439 50.4068 57.6179 50.5148 56.5019 50.5148C55.7099 50.5148 54.9449 50.4608 54.2069 50.3528C53.4869 50.2628 52.8029 50.1458 52.1549 50.0018C51.5249 49.8398 50.9849 49.6688 50.5349 49.4888L50.5349 45.9788Z" fill="#260BBC"/>
</svg>
